# xmcd
#
# Track frame offsets: 
#        150
#        34504
#        57007
#        71710
#        96313
#        118217
#        151221
#        168024
#        185278
#        212730
#
# Disc length: 3106 seconds
#
# Revision: 0
# Processed by: cddbd v1.5.2PL0 Copyright (c) Steve Scherf et al.
# Submitted via: ExactAudioCopy v0.99pb5
#
DISCID=800c200a
DTITLE=Jaromi and Szulerzy - Gra w Piki Daje Wyniki
DYEAR=2009
DGENRE=Blues
TTITLE0=Co za smutek
TTITLE1=Kto narozrabial
TTITLE2=Jestem bluesmanem
TTITLE3=Nie badz smutny
TTITLE4=Szkody gornicze
TTITLE5=Tylko blues
TTITLE6=Wolnosc, Rownosc, Braterstwo
TTITLE7=Pozycz dyche
TTITLE8=Jutro znajdziesz czas
TTITLE9=Jestem bluesmanem (bonus)
EXTD=
EXTT0=
EXTT1=
EXTT2=
EXTT3=
EXTT4=
EXTT5=
EXTT6=
EXTT7=
EXTT8=
EXTT9=
PLAYORDER=
